<svg width="12" height="12" viewBox="0 0 12 12" fill="none" xmlns="http://www.w3.org/2000/svg">
<g filter="url(#filter0_i_3909_7)">
<path d="M7.17804 6.04605L11.1816 2.04553C11.3166 1.88806 11.3871 1.6855 11.3791 1.47833C11.3711 1.27116 11.2851 1.07464 11.1384 0.928042C10.9917 0.781443 10.7951 0.695562 10.5877 0.68756C10.3804 0.679558 10.1777 0.750024 10.0201 0.884879L6.0165 4.84425L1.9882 0.819027C1.83061 0.684172 1.6279 0.613706 1.42057 0.621708C1.21324 0.62971 1.01657 0.715591 0.86986 0.86219C0.723149 1.00879 0.637202 1.20531 0.629194 1.41248C0.621186 1.61965 0.691706 1.8222 0.826664 1.97967L4.84673 6.04605L0.909042 9.93134C0.822807 10.0051 0.752769 10.0959 0.703323 10.1981C0.653876 10.3002 0.62609 10.4114 0.621708 10.5248C0.617326 10.6382 0.636442 10.7512 0.677858 10.8568C0.719273 10.9625 0.782093 11.0584 0.862375 11.1386C0.942657 11.2188 1.03867 11.2816 1.14438 11.323C1.25009 11.3644 1.36322 11.3835 1.47667 11.3791C1.59012 11.3747 1.70144 11.347 1.80365 11.2976C1.90585 11.2481 1.99673 11.1782 2.07058 11.092L6.00003 7.16554L9.90477 11.0673C10.0624 11.2021 10.2651 11.2726 10.4724 11.2646C10.6797 11.2566 10.8764 11.1707 11.0231 11.0241C11.1698 10.8775 11.2558 10.681 11.2638 10.4738C11.2718 10.2667 11.2013 10.0641 11.0663 9.90665L7.17804 6.04605Z" fill="#2C2C2C"/>
</g>
<defs>
<filter id="filter0_i_3909_7" x="0.621094" y="0.621094" width="12.7588" height="11.7587" filterUnits="userSpaceOnUse" color-interpolation-filters="sRGB">
<feFlood flood-opacity="0" result="BackgroundImageFix"/>
<feBlend mode="normal" in="SourceGraphic" in2="BackgroundImageFix" result="shape"/>
<feColorMatrix in="SourceAlpha" type="matrix" values="0 0 0 0 0 0 0 0 0 0 0 0 0 0 0 0 0 0 127 0" result="hardAlpha"/>
<feOffset dx="2" dy="1"/>
<feGaussianBlur stdDeviation="2"/>
<feComposite in2="hardAlpha" operator="arithmetic" k2="-1" k3="1"/>
<feColorMatrix type="matrix" values="0 0 0 0 0.239216 0 0 0 0 0.239216 0 0 0 0 0.239216 0 0 0 0.1 0"/>
<feBlend mode="normal" in2="shape" result="effect1_innerShadow_3909_7"/>
</filter>
</defs>
</svg>
