<svg width="800" height="600" viewBox="0 0 800 600" fill="none" xmlns="http://www.w3.org/2000/svg">
<path d="M284.331 121.043C303.292 83.8724 356.298 83.8723 375.259 121.043L399.262 168.098C406.687 182.655 420.607 192.78 436.719 195.343L488.731 203.619C529.929 210.174 546.324 260.787 516.822 290.34L479.709 327.518C468.152 339.095 462.823 355.515 465.373 371.689L473.569 423.676C480.073 464.932 437.175 496.194 400.014 477.281L352.916 453.31C338.386 445.915 321.205 445.915 306.674 453.31L259.577 477.281C222.415 496.194 179.518 464.932 186.022 423.676L194.218 371.689C196.768 355.515 191.438 339.095 179.882 327.518L142.769 290.34C113.267 260.787 129.661 210.174 170.859 203.619L222.872 195.343C238.984 192.78 252.903 182.655 260.329 168.098L284.331 121.043Z" fill="#FFE550"/>
<path d="M169.703 345.108C168.635 340.594 166.901 336.518 164.502 332.88C162.07 329.109 159.244 326.624 156.021 325.423C147.474 330.109 141.27 339.077 137.407 352.328C133.646 365.415 132.974 377.07 135.392 387.293C137.81 397.516 141.836 403.293 147.468 404.624C156.569 400.508 163.114 392.09 167.102 379.371C171.191 366.487 172.058 355.066 169.703 345.108ZM117.849 359.268C120.038 347.815 124.058 337.892 129.908 329.498C135.86 320.94 142.745 315.736 150.564 313.886C158.515 312.005 165.941 313.823 172.843 319.341C179.714 324.725 184.296 332.263 186.588 341.955C188.849 351.514 188.854 361.888 186.602 373.075C184.32 384.13 179.855 393.948 173.21 402.53C166.665 410.948 158.821 416.238 149.677 418.401C142.919 420 136.549 418.212 130.567 413.038C124.586 407.864 120.465 400.498 118.204 390.938C115.911 381.246 115.793 370.69 117.849 359.268Z" fill="#2C2C2C"/>
<path d="M259.772 323.801C258.704 319.287 256.971 315.211 254.571 311.572C252.14 307.802 249.313 305.316 246.09 304.116C237.543 308.801 231.339 317.769 227.476 331.02C223.715 344.107 223.044 355.762 225.462 365.985C227.88 376.208 231.905 381.985 237.537 383.316C246.639 379.201 253.183 370.783 257.171 358.063C261.26 345.179 262.127 333.758 259.772 323.801ZM207.918 337.96C210.107 326.507 214.127 316.584 219.977 308.19C225.929 299.632 232.814 294.428 240.633 292.579C248.584 290.698 256.01 292.516 262.913 298.033C269.783 303.417 274.365 310.955 276.657 320.647C278.918 330.207 278.923 340.58 276.672 351.767C274.389 362.822 269.925 372.64 263.279 381.222C256.734 389.64 248.89 394.931 239.746 397.094C232.988 398.693 226.618 396.905 220.637 391.731C214.655 386.557 210.534 379.19 208.273 369.631C205.981 359.939 205.862 349.382 207.918 337.96Z" fill="#2C2C2C"/>
<path d="M353.69 206.951C355.81 206.449 358.865 207.829 362.855 211.091C366.946 214.189 369.4 217.464 370.216 220.916C371.033 224.368 371.7 234.585 372.218 251.566C372.705 268.414 372.803 285.986 372.513 304.28C372.141 345.305 370.432 366.178 367.384 366.899C365.528 367.337 363.208 366.695 360.421 364.971C357.735 363.083 356.189 361.275 355.78 359.549C355.372 357.824 355.019 354.262 354.722 348.865C344.876 365.213 335.116 374.532 325.443 376.821C319.612 378.2 313.683 376.799 307.656 372.617C301.762 368.403 298.14 363.442 296.79 357.733C294.843 349.501 294.721 339.226 296.425 326.906C298.23 314.422 302.207 302.546 308.358 291.278C314.508 280.009 322.287 273.262 331.696 271.036C341.105 268.81 348.999 272.901 355.378 283.308C355.479 253.563 353.93 230.447 350.73 213.96C349.788 209.977 350.774 207.641 353.69 206.951ZM354.953 309.906C353.257 302.737 350.569 296.993 346.89 292.677C343.342 288.329 339.846 286.562 336.401 287.377C330.703 288.725 325.704 293.623 321.405 302.07C317.106 310.518 314.251 319.745 312.84 329.752C311.53 339.595 311.66 347.836 313.23 354.474C313.796 356.864 315.112 358.586 317.181 359.638C319.249 360.691 321.475 360.936 323.861 360.371C329.029 359.149 335.107 353.785 342.094 344.281C349.214 334.746 353.568 324.463 355.157 313.432L355.188 310.902L354.953 309.906Z" fill="#2C2C2C"/>
<path d="M481.85 297.971C484.426 308.858 481.689 319.179 473.642 328.933C465.563 338.555 455.162 344.871 442.441 347.881C429.852 350.859 418.68 350.067 408.925 345.505C399.139 340.81 393.555 335.542 392.174 329.7C391.231 325.717 391.953 323.444 394.338 322.879C396.459 322.378 401.387 324.577 409.122 329.476C412.041 331.169 415.724 332.541 420.171 333.592C424.75 334.611 429.292 334.588 433.797 333.522C443.074 331.328 450.724 326.995 456.75 320.522C462.907 314.018 465.327 307.978 464.008 302.402C463.16 298.818 459.691 294.801 453.602 290.354C447.512 285.906 440.971 281.916 433.979 278.383C427.087 274.686 420.581 270.547 414.46 265.967C408.339 261.386 404.886 257.436 404.101 254.117C403.316 250.798 403.147 247.123 403.592 243.092C404.038 239.061 404.852 235.995 406.034 233.893C409.852 226.961 416.629 219.82 426.365 212.47C436.233 205.088 444.877 200.52 452.298 198.764C456.141 197.855 459.686 198.348 462.933 200.244C466.18 202.139 468.133 204.481 468.793 207.269C469.107 208.597 467.967 209.988 465.372 211.443C462.778 212.898 458.789 214.963 453.404 217.639C448.121 220.151 443.498 222.787 439.533 225.547C425.675 234.994 419.39 242.439 420.678 247.883C421.369 250.803 431.052 257.135 449.728 266.876C456.916 270.643 463.712 275.415 470.115 281.19C476.62 286.801 480.532 292.395 481.85 297.971Z" fill="#2C2C2C"/>
<path d="M527.511 307.988C528.108 310.511 529.864 311.427 532.779 310.737C537.814 309.546 543.58 306.71 550.077 302.229C556.674 297.584 560.371 295.167 561.166 294.979C563.551 294.415 565.042 295.394 565.639 297.917C566.549 301.767 563.626 307.155 556.868 314.081C550.243 320.976 543.684 325.191 537.191 326.727C530.83 328.232 525.121 327.76 520.064 325.311C514.976 322.73 511.992 319.58 511.113 315.863C510.233 312.146 509.914 307.244 510.153 301.159C510.362 294.941 510.809 286.774 511.495 276.658C512.282 266.378 512.798 257.914 513.045 251.266C507.162 254.2 503.161 255.918 501.041 256.42C498.92 256.921 496.549 256.361 493.926 254.738C491.405 252.951 489.908 251.062 489.437 249.071C488.684 245.884 496.575 240.793 513.111 233.797C512.89 222.213 511.774 212.172 509.764 203.675C508.822 199.692 509.677 197.387 512.327 196.76C514.58 196.227 517.708 197.029 521.712 199.166C525.684 201.171 528.094 203.965 528.942 207.55C529.79 211.135 530.155 217.708 530.038 227.269C537.434 224.818 543.385 223.06 547.891 221.994C555.842 220.113 560.225 220.898 561.042 224.35C561.513 226.342 559.719 228.519 555.66 230.881C551.733 233.212 543.209 237.401 530.087 243.45C529.785 254.596 529.115 267.443 528.078 281.988C527.009 296.4 526.82 305.067 527.511 307.988Z" fill="#2C2C2C"/>
<path d="M616.338 203.698C622.301 202.288 628.523 204.04 635.003 208.956C641.452 213.739 645.257 218.587 646.419 223.499C647.549 228.279 647.055 233.583 644.935 239.412C646.997 241.027 648.2 242.565 648.545 244.026C649.425 247.743 650.071 254.32 650.483 263.755C651.029 273.16 651.432 279.303 651.694 282.185C652.088 285.036 652.357 287.356 652.5 289.144C652.612 290.8 652.658 292.472 652.637 294.159C652.892 297.603 652.092 299.545 650.237 299.984C647.852 300.548 645.377 298.961 642.813 295.221C640.351 291.317 638.202 286.078 636.367 279.502C628.121 297.295 618.963 307.383 608.892 309.765C602.796 311.207 596.154 310.045 588.966 306.277C581.88 302.346 577.677 297.592 576.358 292.016C574.474 284.05 575.065 273.536 578.132 260.473C581.168 247.277 586.241 235.002 593.35 223.647C600.459 212.291 608.122 205.642 616.338 203.698ZM633.772 236.585C630.852 224.238 626.94 218.645 622.037 219.804C616.869 221.027 611.718 226.171 606.586 235.236C601.422 244.168 597.555 253.846 594.982 264.268C592.41 274.69 591.767 282.623 593.055 288.066C593.589 290.323 594.956 291.962 597.157 292.984C599.326 293.873 601.669 294.019 604.187 293.424C610.415 291.95 616.45 286.107 622.29 275.893C628.098 265.546 631.098 253.971 631.288 241.169C631.214 239.083 632.058 237.622 633.819 236.785L633.772 236.585Z" fill="#2C2C2C"/>
<path d="M596.078 374.496C590.397 375.902 585.918 380.229 584.043 385.784C548.287 491.714 448.137 568.021 330.113 568.021C258.542 568.021 193.543 539.959 145.491 494.247C141.258 490.22 135.3 488.491 129.633 489.893C117.648 492.858 113.114 507.412 122.008 515.991C175.934 568.008 249.289 600 330.113 600C462.9 600 575.528 513.65 614.956 394.014C618.824 382.278 608.053 371.534 596.078 374.496Z" fill="#BBF330"/>
<path d="M54.0202 265.316C60.4972 263.713 65.3027 258.307 66.4987 251.73C89.2208 126.777 198.565 31.9792 330.113 31.9792C415.645 31.9792 491.789 72.0545 540.841 134.437C544.957 139.672 551.7 142.191 558.157 140.594C569.106 137.885 574.054 125.132 567.131 116.209C512.274 45.5027 426.505 0 330.113 0C182.245 0 59.3753 107.079 34.7474 247.96C32.8057 259.067 43.0951 268.019 54.0202 265.316Z" fill="#BBF330"/>
<path d="M781 99.965C710.135 235.735 679.026 146.183 579.27 198.788C589.247 41.1839 694.9 137.079 781 99.965Z" fill="#BBF330"/>
</svg>
