<svg width="17" height="30" viewBox="0 0 17 30" fill="none" xmlns="http://www.w3.org/2000/svg">
<path d="M0.450251 15.905L14.3828 29.18C14.6152 29.4016 14.9241 29.5253 15.2453 29.5253C15.5664 29.5253 15.8753 29.4016 16.1077 29.18L16.1228 29.165C16.2358 29.0576 16.3259 28.9283 16.3874 28.7849C16.449 28.6416 16.4807 28.4873 16.4807 28.3313C16.4807 28.1753 16.449 28.0209 16.3874 27.8776C16.3259 27.7343 16.2358 27.605 16.1228 27.4975L3.00275 14.9975L16.1228 2.50253C16.2358 2.3951 16.3259 2.26578 16.3874 2.12245C16.449 1.97911 16.4807 1.82476 16.4807 1.66878C16.4807 1.5128 16.449 1.35845 16.3874 1.21511C16.3259 1.07178 16.2358 0.942463 16.1228 0.83503L16.1078 0.82003C15.8753 0.598417 15.5664 0.474789 15.2453 0.474789C14.9241 0.474789 14.6152 0.598417 14.3828 0.82003L0.450251 14.095C0.32772 14.2118 0.230172 14.3522 0.163521 14.5077C0.0968686 14.6633 0.0625002 14.8308 0.0625002 15C0.0625002 15.1693 0.0968686 15.3368 0.163521 15.4923C0.230172 15.6479 0.32772 15.7883 0.450251 15.905Z" fill="#2C2C2C"/>
</svg>
