<svg width="17" height="30" viewBox="0 0 17 30" fill="none" xmlns="http://www.w3.org/2000/svg">
<path d="M16.5497 14.095L2.61725 0.819969C2.38478 0.598357 2.07592 0.474731 1.75475 0.474731C1.43357 0.474731 1.12472 0.598357 0.89225 0.819969L0.877249 0.834969C0.764162 0.942402 0.674112 1.07172 0.612577 1.21505C0.551044 1.35838 0.519312 1.51274 0.519312 1.66872C0.519312 1.8247 0.551044 1.97905 0.612577 2.12239C0.674112 2.26572 0.764162 2.39504 0.877249 2.50247L13.9972 15.0025L0.877248 27.4975C0.764161 27.6049 0.674111 27.7342 0.612576 27.8776C0.551043 28.0209 0.519311 28.1752 0.519311 28.3312C0.519311 28.4872 0.551043 28.6416 0.612576 28.7849C0.674111 28.9282 0.764161 29.0575 0.877248 29.165L0.892249 29.18C1.12472 29.4016 1.43357 29.5252 1.75475 29.5252C2.07592 29.5252 2.38478 29.4016 2.61725 29.18L16.5497 15.905C16.6723 15.7882 16.7698 15.6478 16.8365 15.4923C16.9031 15.3367 16.9375 15.1692 16.9375 15C16.9375 14.8307 16.9031 14.6632 16.8365 14.5077C16.7698 14.3521 16.6723 14.2117 16.5497 14.095Z" fill="#2C2C2C"/>
</svg>
