<svg width="32" height="32" viewBox="0 0 32 32" fill="none" xmlns="http://www.w3.org/2000/svg">
<path d="M15.5 1.33331C17.5222 1.33331 19.25 2.03887 20.6833 3.44998C22.1167 4.86109 22.8333 6.57776 22.8333 8.59998C22.8333 9.75554 22.5833 10.8444 22.0833 11.8666C21.5833 12.8889 20.8778 13.7555 19.9667 14.4666H18.8333V12.8C19.4778 12.2889 19.9722 11.6666 20.3167 10.9333C20.6611 10.2 20.8333 9.4222 20.8333 8.59998C20.8333 7.13331 20.3111 5.88887 19.2667 4.86665C18.2222 3.84442 16.9667 3.33331 15.5 3.33331C14.0333 3.33331 12.7778 3.84442 11.7333 4.86665C10.6889 5.88887 10.1667 7.13331 10.1667 8.59998C10.1667 9.4222 10.3389 10.2 10.6833 10.9333C11.0278 11.6666 11.5222 12.2889 12.1667 12.8V15.2C10.9222 14.5555 9.94446 13.6444 9.23335 12.4666C8.52224 11.2889 8.16668 9.99998 8.16668 8.59998C8.16668 6.57776 8.88335 4.86109 10.3167 3.44998C11.75 2.03887 13.4778 1.33331 15.5 1.33331ZM14.2333 29.3333C13.8556 29.3333 13.5 29.2611 13.1667 29.1166C12.8333 28.9722 12.5445 28.7778 12.3 28.5333L5.43335 21.6666L7.30002 19.7333C7.61113 19.4222 7.96113 19.1833 8.35002 19.0166C8.7389 18.85 9.14446 18.8222 9.56668 18.9333L12.1667 19.5333V8.66665C12.1667 7.73331 12.4889 6.94442 13.1333 6.29998C13.7778 5.65554 14.5667 5.33331 15.5 5.33331C16.4333 5.33331 17.2222 5.65554 17.8667 6.29998C18.5111 6.94442 18.8333 7.73331 18.8333 8.66665V14.4H19.7C19.8111 14.4 19.9111 14.4222 20 14.4666C20.0889 14.5111 20.1889 14.5555 20.3 14.6L25.2333 17C25.7667 17.2444 26.1611 17.6389 26.4167 18.1833C26.6722 18.7278 26.7445 19.2889 26.6333 19.8666L25.4333 27.1333C25.3222 27.7778 25.0111 28.3055 24.5 28.7166C23.9889 29.1278 23.4111 29.3333 22.7667 29.3333H14.2333ZM13.9667 27.3333H23.3333L24.7667 19.0333L18.6667 16H16.8333V8.66665C16.8333 8.26665 16.7111 7.94442 16.4667 7.69998C16.2222 7.45554 15.9 7.33331 15.5 7.33331C15.1 7.33331 14.7778 7.45554 14.5333 7.69998C14.2889 7.94442 14.1667 8.26665 14.1667 8.66665V21.9666L9.03335 20.8666L8.26668 21.6333L13.9667 27.3333ZM23.3333 27.3333H13.9667H23.3333Z" fill="#7EB101"/>
</svg>
